<?xml version="1.0" encoding="UTF-8"?>
<svg id="Layer_2" xmlns="http://www.w3.org/2000/svg" version="1.1" viewBox="0 0 5012.56 802.47">
  <!-- Generator: Adobe Illustrator 30.1.0, SVG Export Plug-In . SVG Version: 2.1.1 Build 136)  -->
  <defs>
    <style>
      .st0 {
        fill: #f5af00;
      }

      .st1 {
        fill: #081f7a;
      }
    </style>
  </defs>
  <g>
    <g>
      <path class="st0" d="M682.84,218.15c-4.99-24.08-16.97-46.41-34.52-63.96-17.54-17.55-39.86-29.53-63.94-34.52,20.25-4.15,39.15-13.23,55.29-26.66,2.93-2.42,5.85-5.08,8.66-7.89,10.03-10.02,18.25-21.55,24.43-34.26,4.62-9.49,8.01-19.42,10.12-29.67,4.98,24.07,16.96,46.38,34.52,63.93,17.54,17.55,39.87,29.53,63.96,34.52-10.26,2.11-20.2,5.5-29.69,10.12-16.1,7.83-30.68,19.27-42.15,33.09-13.42,16.15-22.5,35.05-26.65,55.3h-.03Z"/>
      <path class="st1" d="M65.01,247.03c11.63-20.54,24.74-40.4,39.02-59.11,12.71-16.65,26-31.94,39.5-45.44,57.74-57.74,127.66-98.84,207.82-122.17C412.09,2.64,463.32,0,488.45,0c1.83,0,3.41,0,4.73.03h1.14c19.98,0,41.88,2.42,63.33,7.01,20.9,4.48,41.27,10.98,60.56,19.34-7.67,14.64-20.73,26.18-36.18,31.93-7.28-2.52-14.76-4.77-22.24-6.68-29.57-7.58-53.79-8.71-65.6-8.71.01,0-4.35-.02-5.19-.02-23.98,0-72.83,2.62-130.63,20.13-70.93,21.49-132.87,58.28-184.08,109.34l-.44.44c-.97.96-2,2.01-3.09,3.13-7.4,7.6-14.9,16.01-22.3,25.02l-4.36,5.3,6.52,2.16c16.88,5.59,66.72,19.43,74.35,21.27l-103.9,11.26-56.08,6.07h.02Z"/>
    </g>
    <path class="st1" d="M315.05,802.47c-1.87,0-3.48-.01-4.82-.03l-3.71-.04v.06l-1.31-.02h-1.24c-.4,0-.77-.02-1.16-.02-.33,0-.55-.01-.77-.02l-1.04-.03c-.17-.01-.33-.02-.48-.02-.27,0-.61-.02-.95-.04h-.34c-.72-.04-1.44-.07-2.18-.11l-1.32-.06h.08c-.2,0-.58-.03-.58-.03l-.37-.02c-.52-.03-1.08-.06-1.65-.1h-.15c-.95-.06-1.89-.12-2.86-.2-.36-.02-.65-.04-.94-.06l-1.43-.11c-.22-.02-.46-.04-.71-.05-.15-.02-.32-.03-.49-.04l-.18-.02c-.42-.04-.81-.07-1.21-.1-.37-.04-.75-.07-1.15-.11l-1.48-.13c-.33-.03-.66-.07-1-.11l-1.03-.1c-.58-.05-1.15-.11-1.71-.17-.87-.09-1.74-.19-2.61-.29l-.39-.04c-.4-.05-2.42-.3-2.42-.3l-1.87-.24-1.9-.26c-.63-.09-1.3-.19-1.98-.27h-.02c-.37-.06-.65-.1-.94-.14-.34-.05-.65-.1-.96-.14-.2-.04-.38-.07-.57-.09l-1.45-.22c-1.38-.22-2.8-.44-4.24-.68l-.26-.04-.64-.12c-.13-.02-.19-.03-.26-.04l-2.29-.41h-.11l-.77-.16c-.75-.13-1.43-.26-2.11-.39h-.05c-.5-.11-.82-.17-1.16-.23h-.03c-.23-.05-.44-.09-.63-.13l-.53-.11c-.7-.14-1.37-.27-2.04-.41l-2.59-.54-1.82-.39c-.16-.04-.35-.08-.54-.12l-1.05-.23c-.75-.17-1.51-.34-2.27-.52l-3.41-.8c-.17-.04-.42-.11-.42-.11-.81-.19-1.59-.38-2.37-.59-.07-.02-.23-.06-.4-.09l-2.45-.63c-.73-.19-1.45-.38-2.19-.58l-2.16-.59c-.17-.05-2.93-.82-2.93-.82-.07-.02-2.11-.61-2.11-.61-.23-.07-1.79-.53-1.82-.54,0,0-1.74-.53-2.32-.71-.13-.04-.45-.13-.45-.13-.37-.12-1.28-.41-1.28-.41l-.12-.03-2.04-.65c-.26-.08-.52-.16-.77-.25l-.37-.12c-.52-.18-2.56-.85-2.56-.85-1.46-.48-2.93-.99-4.4-1.51-.91-.32-1.81-.64-2.7-.96-.9-.32-1.79-.65-2.67-.98-.8-.29-1.56-.58-2.32-.87l.13.06c-.08-.03-.2-.08-.29-.12-.15-.07-.29-.11-.41-.15-.3-.11-1.08-.42-1.26-.49-.56-.21-1.04-.4-1.52-.59-1.62-.64-3.25-1.3-4.89-1.97l-.84-.34c-.69-.29-1.39-.58-2.09-.88-.53-.22-1.01-.42-1.5-.63l-3.86-1.69c-.16-.08-.35-.17-.53-.24-.83-.37-1.75-.79-2.68-1.22-.89-.42-2.82-1.31-2.86-1.32,0,0-1.94-.93-2.44-1.16l-2.12-1.04c-.37-.17-.67-.33-.98-.49-.98-.48-1.9-.95-2.82-1.42,0,0-.24-.12-.42-.21l-2.03-1.05h0c-.17-.08-.42-.22-.42-.22-1.24-.65-2.45-1.29-3.66-1.94l-2.05-1.12c-.95-.52-1.88-1.04-2.83-1.57-.72-.41-1.43-.82-2.15-1.23l-.7-.4c-.69-.39-1.37-.79-2.05-1.2l-.11-.06c-.12-.06-.22-.13-.32-.19l-.74-.44c-1.77-1.06-3.55-2.15-5.33-3.24-1.89-1.18-3.8-2.4-5.7-3.65-.95-.62-1.89-1.25-2.84-1.88-.24-.16-.42-.27-.6-.4-.33-.23-.6-.42-.87-.6,0,0-1.56-1.07-1.86-1.26l.05.03c-.79-.55-1.6-1.12-2.41-1.69-.96-.67-1.91-1.35-2.84-2.02-.96-.69-1.9-1.38-2.85-2.08l-.51-.38c-.47-.35-.89-.66-1.31-.98l-.77-.58c-.1-.08-.22-.17-.34-.26l-.79-.6c-.65-.5-1.28-.99-1.92-1.49l-.99-.79h-.02c-.61-.48-1.22-.96-1.82-1.45-.85-.67-1.67-1.33-2.48-1.99l-.07-.06c-.1-.08-.19-.17-.3-.25-.45-.38-.91-.76-1.37-1.14l-.2-.16c-.41-.34-.8-.66-1.18-.98-.95-.8-1.88-1.58-2.8-2.38-.96-.82-1.88-1.61-2.79-2.42-.94-.83-1.86-1.65-2.78-2.48-.44-.39-.81-.72-1.18-1.06l-.27-.24c-.44-.4-.9-.82-1.36-1.25l-1.34-1.25c-.41-.38,279.74-323.71,279.74-323.71l-2.19-2.12L56.89,672.08l-.24-.34c-.1-.13-.16-.22-.23-.32l-.61-.87c-.07-.1-.13-.19-.21-.29-.43-.62-.86-1.26-1.3-1.9l-.45-.65c-.45-.66-.91-1.35-1.36-2.03l-.06-.09c-.1-.14-.18-.27-.26-.39-.39-.58-.73-1.09-1.06-1.59l-1.29-2.01c-.44-.68-.86-1.35-1.28-2.01l-.9-1.44c-.34-.53-.66-1.06-.98-1.59-.63-1.01-1.22-1.98-1.81-2.97l-.84-1.4-.11-.34-.27-.33-.03-.05v-.36l-.68-.79c-.51-.88-1.02-1.77-1.53-2.65l-.75-1.32c-.15-.25-.25-.44-.35-.63l-.3-.53c-.17-.31-.35-.62-.51-.92-.42-.75-.79-1.43-1.15-2.11-.33-.6-1.5-2.78-1.51-2.81,0,0-1.59-3.06-1.9-3.66l-1.37-2.72c-.35-.7-.7-1.41-1.04-2.12l-.39-.8c-.47-.97-.94-1.94-1.39-2.89,0,0-1.15-2.45-1.35-2.9-.35-.76-1.25-2.72-1.25-2.72-.04-.1-.07-.17-.1-.23-.39-.85-.73-1.64-1.07-2.42l-.05-.11c-.08-.16-.14-.31-.2-.45-.38-.87-.72-1.66-1.06-2.46l-.39-.91c-.18-.43-.36-.85-.54-1.28l-.17-.41c-.27-.65-.51-1.21-.73-1.78l-.04-.1c-.12-.28-.23-.55-.34-.81-.1-.25-.5-1.24-.5-1.24l-.97-2.45c-.33-.84-.66-1.68-.98-2.52-.37-.99-.74-1.96-1.1-2.94l-.35-.95c-.23-.62-.44-1.22-.66-1.82l-.3-.83c-.18-.5-.36-1.01-.53-1.53l-.04-.1c-.03-.1-.07-.18-.1-.27l-.07-.22-.03-.07c-.16-.45-.32-.9-.47-1.34-.14-.41-.28-.83-.42-1.24-.3-.88-.6-1.77-.88-2.66-.01-.04-.03-.09-.04-.13l43.3-29.21,242-163.31c1.9-1.17,3.76-2.43,5.55-3.74l.18-.15c11.08-8.23,19.24-18.75,24.24-31.26,1.12-2.66,3.11-8.33,3.52-15.76l.38-6.74L2.03,526.4l-.16-1.39c-.06-.49-.11-.9-.15-1.31,0,0-.13-1.12-.13-1.2,0-.24-.03-.46-.06-.64l-.02-.23c-.04-.32-.07-.64-.09-.94l-.09-.98c-.03-.27-.05-.46-.07-.66l-.17-1.92c-.04-.4-.07-.74-.09-1.08l-.2-2.57c-.08-1.01-.14-1.98-.21-2.93l-.03-.48c-.09-1.46-.16-2.86-.23-4.19-.02-.33-.03-.6-.04-.87l-.03-.55-.02-.59v-.13l-.07-1.59-.06-2.4v-.37c-.02-.12-.02-.22-.02-.32v-.17c0-.12,0-.23,0-.32v-.89c-.02-.15-.02-.27-.02-.38v-.16c-.01-.16-.01-.29-.01-.41-.02-1.76-.03-3.22-.02-4.37-.22-19.49.73-39.02,2.84-58.16l316.38-125.78-5.87-3.86c-3.5-2.3-6.48-3.64-7.94-4.23-4.99-2.12-15.44-5.71-28.82-5.71-6.25,0-12.44.8-18.4,2.38L13.99,371.81c7.29-29.4,17.48-58.45,30.34-86.47l62-9.81,186.56-29.5c4.49-.51,9.04-.77,13.53-.77,3.72,0,7.45.18,11.1.53h.1c2.26.23,4.43.51,6.46.83,10.35,1.61,20.2,4.65,29.3,9.03,3.87,1.87,11.09,5.36,18.88,11.43,4.71,3.67,9.06,7.85,12.93,12.44,3.31,3.92,11.05,13.11,15.98,26.25,1.9,5.05,3.23,10.3,3.95,15.6.46,3.36.69,6.78.66,10.18-.13,17.14-5.01,32.13-10.3,40.54l2.93,2.07c4.49-3.88,8.82-8.17,12.36-12.95,12.68-17.15,17.11-27.03,19.87-36.59,1.83-6.32,2.84-12.36,3.02-17.96.12-3.27-.11-5.48-.2-6.32-.36-3.45-1.08-6.91-2.13-10.3-2.45-7.9-6.18-13.58-8.42-16.96-1.91-2.91-4.22-5.79-6.86-8.55-3.66-3.85-8.07-7.58-13.11-11.11,5.08.27,10.11.5,15.06.7,10.95.46,22.24.8,34.51,1.03,9.88.18,20.2.27,31.53.27,4.06,0,8.2-.02,12.42-.05,5.29-.03,10.23-.09,15.1-.17,30.35-.47,61.48-1.74,92.5-3.77.47-.03.94-.05,1.4-.05,4.15,0,7.68,1.26,10.2,3.66,3.55,3.36,4.92,8.73,3.87,15.11l-.78,4.7,4.75-.46c6.13-.59,11.84-.93,16.98-1,.54,0,1.09-.01,1.66-.01,6.62,0,15.07.7,21.69,6.14,8.21,6.75,10.76,18.12,11.46,26.47.27,3.26.22,5.77.2,6.84-.06,3.28-.42,6.54-1.07,9.75-3.08-3.49-7.34-7.1-13.11-9.74-4.11-1.89-9.13-2.84-14.89-2.84-7,0-13.02,1.41-14.7,1.84-88.14,22.65-164.64,65.94-227.35,128.66-18.76,18.76-46.79,50.63-73.82,95.93-39.74,66.6-63.09,138.27-69.39,213l-.28,3.32,3.28.59c20.34,3.66,36.45,4.2,44.25,4.2h5.99c23.96,0,72.78-2.62,130.54-20.15,70.89-21.52,132.76-58.34,183.87-109.46,30.89-30.88,131.52-145.05,129.6-317.84-.01-.33-.01-.95-.01-1.04.01-3.24-.06-6.61-.21-9.99-.55-12.67-2.47-32.69-8.46-56.05-.89-3.47-1.87-6.99-2.91-10.47-1.22-4.08-2.52-8.12-3.88-12.03,5.96-16.29,18.05-29.81,33.56-37.62,6.15,14.04,11.34,28.77,15.46,43.83,1.61,5.89,3.09,11.94,4.39,17.97,5.3,24.83,6.72,45.44,6.98,58.36.06,2.86.06,4.95.05,6.2.99,84.87-19.93,166.38-62.17,242.31-22.28,40.06-50.9,78.48-80.59,108.17-57.83,57.84-127.87,99.02-208.15,122.41-60.89,17.73-112.24,20.38-137.44,20.38l.02-.05Z"/>
  </g>
  <g>
    <path class="st1" d="M3129.37,377.58l-16.18,38.15h-19.61l54.75-127.81h22.97l56.99,127.81h-20.49l-16.9-38.15h-61.54.01ZM3184.87,361.63c-15.4-34.93-22.66-51.54-25.6-60.27h-.18c-2.65,8.44-11.27,30.18-23.93,60.27h49.71Z"/>
    <path class="st1" d="M3253.5,388.09c3.21,10.53,12.27,16.69,28.51,16.69,17.22,0,23.24-5.98,23.24-13.88,0-7.47-4.54-12.47-27.41-15.22-32.23-4.06-38.18-15.35-38.18-26.69,0-11.91,9.47-27,38.8-27,31.61,0,40.64,16.23,41.62,27.3h-17.9c-1.38-5.42-5.08-14.09-24.69-14.09-16.53,0-20.01,7.09-20.01,12.18,0,6.61,4.21,10.57,24.84,13.32,34.45,4.66,40.76,15.36,40.76,28.84,0,16.4-12.49,28.71-42.18,28.71-26.48,0-42.24-11.2-45.35-30.16h17.96-.01Z"/>
    <path class="st1" d="M3355.11,388.09c3.21,10.53,12.27,16.69,28.51,16.69,17.22,0,23.24-5.98,23.24-13.88,0-7.47-4.54-12.47-27.41-15.22-32.23-4.06-38.18-15.35-38.18-26.69,0-11.91,9.47-27,38.8-27,31.61,0,40.64,16.23,41.62,27.3h-17.9c-1.38-5.42-5.08-14.09-24.69-14.09-16.53,0-20.01,7.09-20.01,12.18,0,6.61,4.21,10.57,24.84,13.32,34.45,4.66,40.76,15.36,40.76,28.84,0,16.4-12.49,28.71-42.18,28.71-26.48,0-42.24-11.2-45.35-30.16h17.96-.01Z"/>
    <path class="st1" d="M3444.51,280.48h17.86v20.75h-17.86v-20.75ZM3444.51,324.52h17.86v91.21h-17.86v-91.21Z"/>
    <path class="st1" d="M3498.15,388.09c3.21,10.53,12.27,16.69,28.51,16.69,17.22,0,23.24-5.98,23.24-13.88,0-7.47-4.54-12.47-27.41-15.22-32.23-4.06-38.18-15.35-38.18-26.69,0-11.91,9.47-27,38.8-27,31.61,0,40.64,16.23,41.62,27.3h-17.9c-1.38-5.42-5.08-14.09-24.69-14.09-16.53,0-20.01,7.09-20.01,12.18,0,6.61,4.21,10.57,24.84,13.32,34.45,4.66,40.76,15.36,40.76,28.84,0,16.4-12.49,28.71-42.18,28.71-26.48,0-42.24-11.2-45.35-30.16h17.96-.01Z"/>
    <path class="st1" d="M3577.85,324.52h18.01v-29.21h17.92v29.21h23.62v13.97h-23.62v49.22c0,10.29,2.6,14.87,12.47,14.87,2.64,0,6.27-.12,8.9-.77v13.06c-4.17,1.44-9.05,1.69-14.39,1.69-19.11,0-24.9-8.52-24.9-26.46v-51.61h-18.01v-13.97Z"/>
    <path class="st1" d="M3735.6,392.97c0,9.06.54,20.65.84,22.75h-16.99c-.72-3.26-1.02-10.17-1.08-13.16-4.81,9.37-15.14,15.67-34.33,15.67-25.73,0-35.24-15.6-35.24-29.32,0-23.38,21.19-29.87,47.28-29.87h22.04v-4.73c0-9.81-4.22-18.93-23.27-18.93-17.16,0-21.2,7.51-22.97,15.68h-17.86c1.07-12.04,9.17-29.08,40.75-29.08,33.57,0,40.83,16.36,40.83,31.44v39.54h0ZM3718.12,371.59c-2.79-.06-8.92-.06-21.61-.06-20.54,0-30.11,4.59-30.11,16.47,0,8.89,6.59,16.35,21.43,16.35,23.7,0,30.3-13.73,30.3-28.95v-3.81h0Z"/>
    <path class="st1" d="M3760.36,347.51c0-7.69,0-16.22-.18-23h17.37c.36,3.1.6,10.53.67,16.56,3.97-8.61,13.41-19.08,32.86-19.08,21.47,0,35.32,13.24,35.32,38.16v55.57h-17.98v-52.39c0-14.72-5.64-26.44-22.36-26.44-18.65,0-27.78,14.16-27.78,34.99v43.84h-17.92v-68.21h0Z"/>
    <path class="st1" d="M3860.03,324.52h18.01v-29.21h17.92v29.21h23.62v13.97h-23.62v49.22c0,10.29,2.6,14.87,12.47,14.87,2.64,0,6.27-.12,8.9-.77v13.06c-4.17,1.44-9.05,1.69-14.39,1.69-19.11,0-24.9-8.52-24.9-26.46v-51.61h-18.01v-13.97Z"/>
    <path class="st1" d="M4009.58,378.5c4.58,14.73,15.42,25.05,40.34,25.05s34.21-9.52,34.21-21.2c0-12.34-6.97-19.91-39.56-25.39-38.78-6.58-47.92-18.78-47.92-36.16,0-22.66,21.53-35.51,49.51-35.51,41.71,0,51.62,21.8,53.06,34.83h-19.06c-2.55-8.55-7.91-19.89-34.5-19.89-18.16,0-29.76,6.18-29.76,18.73,0,10.26,5.22,16.7,33.94,21.53,46.27,7.89,53.72,22.24,53.72,39.96,0,20.46-16.3,37.93-55.02,37.93-35.96,0-54.02-16.37-58.15-39.86h19.18v-.02Z"/>
    <path class="st1" d="M4138.92,374.29c.95,17.11,12.52,29.68,30.71,29.68,14.04,0,21.75-5.67,26.55-14.31h17.86c-4.95,13.73-17.89,28.59-45.28,28.59-32.96,0-47.74-23.93-47.74-47.86,0-27.43,18.27-48.39,47.33-48.39,34.68,0,47.01,25.3,47.01,47.64,0,1.59,0,2.81-.06,4.65h-76.38ZM4196.78,361.77c-.77-10.6-6.4-26.01-28.56-26.01-18.48,0-27.41,11.46-28.94,26.01h57.5Z"/>
    <path class="st1" d="M4323.05,387.06c-4.41,16.54-18.78,31.19-44.93,31.19-32.59,0-48.19-21.87-48.19-47.87s17.65-48.38,48.43-48.38,42.5,19.79,44.45,31.78h-17.86c-3.07-8.27-10.05-17.44-26.81-17.44-18.93,0-29.92,14.11-29.92,33.74s10.51,33.76,29.98,33.76c14.49,0,22.48-6.61,27.01-16.78h17.86-.02Z"/>
    <path class="st1" d="M4342.03,349.31c0-8.23,0-16.57-.18-24.8h17.37c.31,2.72.67,12.35.67,20.39,5.85-13.86,18.93-23.04,36.8-22.84v17c-20.94-.24-36.8,12.08-36.8,38.89v37.77h-17.86v-66.41Z"/>
    <path class="st1" d="M4420.78,374.29c.95,17.11,12.52,29.68,30.71,29.68,14.04,0,21.75-5.67,26.55-14.31h17.86c-4.95,13.73-17.89,28.59-45.28,28.59-32.96,0-47.74-23.93-47.74-47.86,0-27.43,18.27-48.39,47.33-48.39,34.68,0,47.01,25.3,47.01,47.64,0,1.59,0,2.81-.06,4.65h-76.38ZM4478.64,361.77c-.77-10.6-6.4-26.01-28.56-26.01-18.48,0-27.41,11.46-28.94,26.01h57.5Z"/>
    <path class="st1" d="M4505.73,324.52h18.01v-29.21h17.92v29.21h23.62v13.97h-23.62v49.22c0,10.29,2.6,14.87,12.47,14.87,2.64,0,6.27-.12,8.9-.77v13.06c-4.17,1.44-9.05,1.69-14.39,1.69-19.11,0-24.9-8.52-24.9-26.46v-51.61h-18.01v-13.97Z"/>
    <path class="st1" d="M4663.47,392.97c0,9.06.54,20.65.84,22.75h-16.99c-.72-3.26-1.02-10.17-1.08-13.16-4.81,9.37-15.14,15.67-34.33,15.67-25.73,0-35.24-15.6-35.24-29.32,0-23.38,21.19-29.87,47.28-29.87h22.04v-4.73c0-9.81-4.22-18.93-23.27-18.93-17.16,0-21.2,7.51-22.97,15.68h-17.86c1.07-12.04,9.17-29.08,40.75-29.08,33.57,0,40.83,16.36,40.83,31.44v39.54h0ZM4645.99,371.59c-2.79-.06-8.92-.06-21.61-.06-20.54,0-30.11,4.59-30.11,16.47,0,8.89,6.59,16.35,21.43,16.35,23.7,0,30.3-13.73,30.3-28.95v-3.81h-.01Z"/>
    <path class="st1" d="M4688.29,349.31c0-8.23,0-16.57-.18-24.8h17.37c.31,2.72.67,12.35.67,20.39,5.85-13.86,18.93-23.04,36.8-22.84v17c-20.94-.24-36.8,12.08-36.8,38.89v37.77h-17.86v-66.41Z"/>
    <path class="st1" d="M4772.82,324.52c19.14,44.42,29.44,69.8,32.11,77.44h.31c3.15-9.01,12.32-35.05,29.42-77.44h18.51l-35.41,86.09c-16.14,39.26-21.98,47.51-45.41,47.51-3.39,0-8.85-.36-12.03-.96v-15.56c3.57.48,7.63.71,9.99.71,12.31,0,16.93-5.06,25.02-22.46l-42.15-95.33h19.64Z"/>
    <path class="st1" d="M3111.5,631.72v-77.24h-16.99v-13.97h16.99v-12.02c0-20.78,9.22-33.4,30.61-33.4,4.5,0,8.37.3,10.84,1.02v14.5c-2.37-.53-5.74-.76-8.01-.76-12.02,0-15.52,5.15-15.52,19.51v11.15h21.16v13.97h-21.16v77.24h-17.92Z"/>
    <path class="st1" d="M3254.43,586.09c0,25.5-16.57,48.16-49.39,48.16-31.04,0-48.28-22.82-48.28-48.04s18.24-48.21,49.19-48.21,48.48,24.07,48.48,48.09ZM3175.04,586.2c0,17.11,10.87,33.52,30.61,33.52s30.37-15.36,30.37-33.33-10.77-33.88-30.78-33.88-30.2,15.65-30.2,33.69h0Z"/>
    <path class="st1" d="M3274.16,565.31c0-8.23,0-16.57-.18-24.8h17.37c.31,2.72.67,12.35.67,20.39,5.85-13.86,18.93-23.04,36.8-22.84v17c-20.94-.24-36.8,12.08-36.8,38.89v37.77h-17.86v-66.41h0Z"/>
    <path class="st1" d="M3440.74,519.79h-48.5v-15.88h115.89v15.88h-48.44v111.93h-18.95v-111.93Z"/>
    <path class="st1" d="M3519.42,590.29c.95,17.11,12.52,29.68,30.71,29.68,14.04,0,21.75-5.67,26.55-14.31h17.86c-4.95,13.73-17.89,28.59-45.28,28.59-32.96,0-47.74-23.93-47.74-47.86,0-27.43,18.27-48.39,47.33-48.39,34.68,0,47.01,25.3,47.01,47.64,0,1.59,0,2.81-.06,4.65h-76.38ZM3577.28,577.77c-.77-10.6-6.4-26.01-28.56-26.01-18.48,0-27.41,11.46-28.94,26.01h57.5Z"/>
    <path class="st1" d="M3703.56,603.06c-4.41,16.54-18.78,31.19-44.93,31.19-32.59,0-48.19-21.87-48.19-47.87s17.65-48.38,48.43-48.38,42.5,19.79,44.45,31.78h-17.86c-3.07-8.27-10.05-17.44-26.81-17.44-18.93,0-29.92,14.11-29.92,33.74s10.51,33.76,29.98,33.76c14.49,0,22.48-6.61,27.01-16.78h17.86-.02Z"/>
    <path class="st1" d="M3740.15,496.48v60.12c3.25-6.6,11.64-18.6,33.49-18.6s34.69,12.79,34.69,38.68v55.05h-17.98v-52.44c0-15.11-5.37-26.39-22.16-26.39-18.94,0-27.98,15.11-27.98,34.08v44.75h-17.86v-135.25h17.8Z"/>
    <path class="st1" d="M3832.86,563.51c0-7.69,0-16.22-.18-23h17.37c.36,3.1.6,10.53.67,16.56,3.97-8.61,13.41-19.08,32.86-19.08,21.47,0,35.32,13.24,35.32,38.16v55.57h-17.98v-52.39c0-14.72-5.64-26.44-22.36-26.44-18.65,0-27.78,14.16-27.78,34.99v43.84h-17.92v-68.21h0Z"/>
    <path class="st1" d="M4036.04,586.09c0,25.5-16.57,48.16-49.39,48.16-31.04,0-48.28-22.82-48.28-48.04s18.24-48.21,49.19-48.21,48.48,24.07,48.48,48.09ZM3956.65,586.2c0,17.11,10.87,33.52,30.61,33.52s30.37-15.36,30.37-33.33-10.77-33.88-30.78-33.88-30.2,15.65-30.2,33.69h0Z"/>
    <path class="st1" d="M4056.09,631.72v-135.25h17.86v135.25h-17.86Z"/>
    <path class="st1" d="M4191.43,586.09c0,25.5-16.57,48.16-49.39,48.16-31.04,0-48.28-22.82-48.28-48.04s18.24-48.21,49.19-48.21,48.48,24.07,48.48,48.09ZM4112.04,586.2c0,17.11,10.87,33.52,30.61,33.52s30.37-15.36,30.37-33.33-10.77-33.88-30.78-33.88-30.2,15.65-30.2,33.69Z"/>
    <path class="st1" d="M4301.62,619.9c0,34.23-11.53,54.22-49.21,54.22s-43.4-20.73-45.14-31.39h18.22c2.68,9.06,9.22,17.17,27.91,17.17,26.18,0,30.61-16.86,30.61-38.99v-4.88c-5.52,10.44-15.21,17.24-34.08,17.24-25.78,0-43.61-20.26-43.61-46.04,0-29.15,21.16-49.24,45.84-49.24,20.77,0,29.11,9.36,31.85,16.31.06-4.34.24-11.28.54-13.79h17.25c-.18,8.83-.18,17.66-.18,26.49v52.89h0ZM4224.66,586.5c0,18.4,12.02,31.89,29.74,31.89,18.81,0,30.03-11.65,30.03-32.9s-10.62-32.59-29.08-32.59c-20.85,0-30.69,16.65-30.69,33.61h0Z"/>
    <path class="st1" d="M4336.83,540.52c19.14,44.42,29.44,69.8,32.11,77.44h.31c3.15-9.01,12.32-35.05,29.42-77.44h18.51l-35.41,86.09c-16.13,39.26-21.98,47.51-45.41,47.51-3.39,0-8.85-.36-12.03-.96v-15.56c3.57.48,7.63.71,9.99.71,12.31,0,16.93-5.06,25.02-22.46l-42.15-95.33h19.64Z"/>
    <path class="st1" d="M4496.24,503.91h60.38c31.65,0,46.42,16.32,46.42,37.76,0,25.17-17.32,39.26-45.86,39.26h-42.05v50.79h-18.89v-127.81h0ZM4515.14,565.19h39.47c17.29,0,29.32-5.13,29.32-23.22,0-14.24-9.53-22.39-29.32-22.39h-39.47v45.61Z"/>
    <path class="st1" d="M4711.05,586.09c0,25.5-16.57,48.16-49.39,48.16-31.04,0-48.28-22.82-48.28-48.04s18.24-48.21,49.19-48.21,48.48,24.07,48.48,48.09ZM4631.66,586.2c0,17.11,10.87,33.52,30.61,33.52s30.37-15.36,30.37-33.33-10.77-33.88-30.78-33.88-30.2,15.65-30.2,33.69Z"/>
    <path class="st1" d="M4731.11,631.72v-135.25h17.86v135.25h-17.86Z"/>
    <path class="st1" d="M4773.54,496.48h17.86v20.75h-17.86v-20.75h0ZM4773.54,540.52h17.86v91.21h-17.86v-91.21Z"/>
    <path class="st1" d="M4904.27,603.06c-4.41,16.54-18.78,31.19-44.93,31.19-32.59,0-48.19-21.87-48.19-47.87s17.65-48.38,48.43-48.38,42.5,19.79,44.45,31.78h-17.86c-3.07-8.27-10.05-17.44-26.81-17.44-18.93,0-29.92,14.11-29.92,33.74s10.51,33.76,29.98,33.76c14.49,0,22.48-6.61,27.01-16.78h17.86-.02Z"/>
    <path class="st1" d="M4932.21,540.52c19.14,44.42,29.44,69.8,32.11,77.44h.31c3.15-9.01,12.32-35.05,29.42-77.44h18.51l-35.41,86.09c-16.14,39.26-21.98,47.51-45.41,47.51-3.39,0-8.85-.36-12.03-.96v-15.56c3.57.48,7.63.71,9.99.71,12.31,0,16.93-5.06,25.02-22.46l-42.15-95.33h19.64Z"/>
  </g>
  <g>
    <path class="st1" d="M1331.09,672.37l-38.32-69.1h-251.76l-37.16,69.1h-129.51l215.78-383.8h155.88l210.03,383.8h-124.94ZM1081.52,526.06h171.92l-86.56-159.9-85.36,159.9h0Z"/>
    <path class="st1" d="M1686.82,675.27c-134.05,0-163.54-3.01-197.21-20.13-23.26-11.35-35.04-40.12-35.04-85.54,0-3.32,0-9.99.47-17.41h112.24c1.18,24.83,3.91,32.53,19.06,38.21,8.7,3.48,41.44,5.92,79.58,5.92,137.14,0,154.46-4.23,154.46-37.75,0-16.3-7.83-28.65-20.94-33.02-8.7-2.77-33.46-4.35-74.28-4.74h-106.86c-71.02,0-100.27-3.89-125.21-16.65-27.08-14.1-39.69-44.79-39.69-96.57,0-68.8,19.4-97.83,74.14-110.95,30.9-8.01,74.53-10.98,161.02-10.98,135.69,0,166.54,3.37,194.15,21.2,25.93,17.48,34.45,41.08,34.62,96.65h-111.48c-.51-34.98-16.98-38.32-89.42-38.32-36.51,0-87.48,1.11-106.95,2.33-32.08,2.38-43.45,11.34-43.45,34.26,0,17.34,8.85,28.26,26.31,32.48,7.08,1.77,9.47,2.37,48,2.95h109.77c9.84,0,62.22,1.72,82.35,2.9,72.78,3.44,101.13,34.86,101.13,112.06,0,70.62-20.71,101.32-76.43,113.26-29.24,6.43-88.14,9.83-170.35,9.83h0Z"/>
    <polygon class="st1" points="2113.97 672.37 2113.97 380.88 1941.51 380.88 1941.51 288.57 2400.8 288.57 2400.8 380.88 2228.34 380.88 2228.34 672.37 2113.97 672.37"/>
    <path class="st1" d="M2433.33,672.37v-383.8h294.39c74.87,0,93.56,2.28,117.67,14.33,38.24,18.83,52.45,53.03,52.45,126.18s-12.88,110.8-44.46,130.32c-22.36,13.76-48.2,17.74-115.21,17.74h-191.05v95.23h-113.79ZM2547.12,486.58h173.05c25.77,0,40.78-3.04,50.19-10.15,9.59-7.25,13.69-18.8,13.69-38.63,0-25.6-3.56-38.82-12.69-47.16-9.05-8.27-23.4-11.49-51.19-11.49h-173.05v107.44h0Z"/>
  </g>
</svg>